#File written by LIBRIZOMUV. Compilation :Oct 10 2018,19:05:57
mtllib barrels:mtl
#begin vertices
v -0.7 -1.280857 -2
v -0.7 1.280857 -2
v 0.007107 -1.280857 -1.707107
v 0.007107 1.280857 -1.707107
v 0.3 -1.280857 -1
v 0.3 1.280857 -1
v 0.007107 -1.280857 -0.292893
v 0.007107 1.280857 -0.292893
v -0.7 -1.280857 0
v -0.7 1.280857 0
v -1.407107 -1.280857 -0.292893
v -1.407107 1.280857 -0.292893
v -1.7 -1.280857 -1
v -1.7 1.280857 -1
v -1.407107 -1.280857 -1.707107
v -1.407107 1.280857 -1.707107
v 1.3 -1.280857 -1
v 1.3 1.280857 -1
v 2.007107 -1.280857 -0.707107
v 2.007107 1.280857 -0.707107
v 2.3 -1.280857 0
v 2.3 1.280857 0
v 2.007107 -1.280857 0.707107
v 2.007107 1.280857 0.707107
v 1.3 -1.280857 1
v 1.3 1.280857 1
v 0.592893 -1.280857 0.707107
v 0.592893 1.280857 0.707107
v 0.3 -1.280857 -0
v 0.3 1.280857 -0
v 0.592893 -1.280857 -0.707107
v 0.592893 1.280857 -0.707107
v -0.7 -1.280857 0.1
v -0.7 1.280857 0.1
v 0.007107 -1.280857 0.392893
v 0.007107 1.280857 0.392893
v 0.3 -1.280857 1.1
v 0.3 1.280857 1.1
v 0.007107 -1.280857 1.807107
v 0.007107 1.280857 1.807107
v -0.7 -1.280857 2.1
v -0.7 1.280857 2.1
v -1.407107 -1.280857 1.807107
v -1.407107 1.280857 1.807107
v -1.7 -1.280857 1.1
v -1.7 1.280857 1.1
v -1.407107 -1.280857 0.392893
v -1.407107 1.280857 0.392893
v -0.72804 0.365909 -2.011413
v -0.72804 0.774107 -2.011413
v 2.18906 0.365909 -0.5
v 2.18906 0.774107 -0.5
v 2.18906 0.365909 0.5
v 2.18906 0.774107 0.5
v -0.617509 0.365909 2.102392
v -0.617509 0.774107 2.102392
v -1.483534 0.365909 1.602392
v -1.483534 0.774107 1.602392
v -1.594065 0.365909 -1.511413
v -1.594065 0.774107 -1.511413
v -0.982528 0.365909 -2.662525
v 2.933348 0.365909 -0.662248
v 2.933348 0.774107 -0.662248
v -0.982528 0.774107 -2.662525
v 2.933348 0.365909 0.637752
v 2.933348 0.774107 0.637752
v -0.847501 0.365909 2.765753
v -0.847501 0.774107 2.765753
v -1.973334 0.365909 2.115752
v -1.973334 0.774107 2.115752
v -2.108361 0.365909 -2.012526
v -2.108361 0.774107 -2.012526
#end vertices

#begin 174 textures vertices 
vt 0.9202177 0.6466853 0
vt 0.7119282 0.6466853 0
vt 0.9202177 0.5844544 0
vt 0.7119282 0.5844544 0
vt 0.9202177 0.5222234 0
vt 0.7119282 0.5222234 0
vt 0.9202177 0.4599925 0
vt 0.7119282 0.4599925 0
vt 0.9202177 0.8956091 0
vt 0.7119282 0.8956091 0
vt 0.9202177 0.8333782 0
vt 0.7119282 0.8333782 0
vt 0.9202177 0.7711472 0
vt 0.7119282 0.7711472 0
vt 0.9202177 0.7089163 0
vt 0.2367628 0.097197 0
vt 0.6007289 0.7857236 0
vt 0.3924394 0.7857236 0
vt 0.6007289 0.7234927 0
vt 0.3924394 0.7234927 0
vt 0.6007289 0.6612617 0
vt 0.3924394 0.6612617 0
vt 0.6007289 0.5990308 0
vt 0.3924394 0.5990308 0
vt 0.6007289 0.5367998 0
vt 0.3924394 0.5367998 0
vt 0.6007289 0.4745689 0
vt 0.3924394 0.4745689 0
vt 0.6007289 0.9101855 0
vt 0.3924394 0.9101855 0
vt 0.6007289 0.8479546 0
vt 0.2589495 0.775955 0
vt 0.2102426 0.4830089 0
vt 0.001953125 0.4830089 0
vt 0.2102426 0.9186255 0
vt 0.001953125 0.420778 0
vt 0.2102426 0.8563946 0
vt 0.001953125 0.8563946 0
vt 0.2102426 0.7941636 0
vt 0.001953125 0.7941636 0
vt 0.2102426 0.7319327 0
vt 0.001953125 0.7319327 0
vt 0.2102426 0.6697017 0
vt 0.001953125 0.6697017 0
vt 0.2102426 0.6074708 0
vt 0.001953125 0.6074708 0
vt 0.2102426 0.5452399 0
vt 0.3211806 0.4685169 0
vt 0.7472042 0.1019417 0
vt 0.3522805 0.3650553 0
vt 0.7456602 0.3690685 0
vt 0.3507366 0.09792849 0
vt 0.6732514 0.4060558 0
vt 0.2783278 0.0609412 0
vt 0.4534167 0.2621036 0
vt 0.05849308 0.2048933 0
vt 0.4575892 0.1809021 0
vt 0.06266556 0.2860948 0
vt 0.6789678 0.05772749 0
vt 0.9980469 0.001953125 0
vt 0.7849376 0.05943164 0
vt 0.7849376 0.4169604 0
vt 0.3900139 0.05003661 0
vt 0.3900139 0.4075653 0
vt 0.6908061 0.4650438 0
vt 0.2958825 0.001953125 0
vt 0.638622 0.4383589 0
vt 0.001953125 0.1970109 0
vt 0.03514315 0.001953125 0
vt 0.007377401 0.3025729 0
vt 0.6962304 0.001953125 0
vt 0.4300668 0.001953125 0
vt 0.9249208 0.4907354 0
vt 0.3013068 0.4650438 0
vt 0.07507925 0.001953125 0
vt 0.605432 0.7911223 0
vt 0.001953125 0.1076544 0
vt 0.9249208 0.8300599 0
vt 0.8649265 0.1556722 0
vt 0.476749 0.08326173 0
vt 0.4368129 0.08326173 0
vt 0.7918004 0.4187183 0
vt 0.2840442 0.4092695 0
vt 0.1150153 0.001953125 0
vt 0.9648569 0.2552918 0
vt 0.8249904 0.151587 0
vt 0.08182532 0.08326176 0
vt 0.509939 0.001953125 0
vt 0.4700029 0.001953125 0
vt 0.8317365 0.4184449 0
vt 0.9581108 0.4942157 0
vt 0.402301 0.1644241 0
vt 0.3968768 0.1076543 0
vt 0.9581108 0.1332067 0
vt 0.04188922 0.1076544 0
vt 0.3968768 0.2699861 0
vt 0.605432 0.4383589 0
vt 0.03514315 0.1076544 0
vt 0.001953125 0.001953125 0
vt 0.9581108 0.8300599 0
vt 0.9249208 0.4942157 0
vt 0.3968768 0.001953125 0
vt 0.9581108 0.4907354 0
vt 0.4300668 0.1076543 0
vt 0.9249208 0.1332067 0
vt 0.04188922 0.001953125 0
vt 0.07507925 0.1076544 0
vt 0.638622 0.7911223 0
vt 0.8249904 0.4187183 0
vt 0.1150153 0.08326176 0
vt 0.08182532 0.001953125 0
vt 0.8649265 0.4184449 0
vt 0.509939 0.08326173 0
vt 0.7918004 0.151587 0
vt 0.476749 0.001953125 0
vt 0.9648569 0.001953125 0
vt 0.3211805 0.6187557 0
vt 0.2589496 0.4685169 0
vt 0.3651844 0.5747518 0
vt 0.001953125 0.9186255 0
vt 0.2149457 0.5125208 0
vt 0.3651844 0.5125209 0
vt 0.2149457 0.5747517 0
vt 0.001953125 0.5452399 0
vt 0.2589495 0.6187557 0
vt 0.3651844 0.6662399 0
vt 0.2149457 0.7284709 0
vt 0.2102426 0.420778 0
vt 0.3211805 0.622236 0
vt 0.2589496 0.7724748 0
vt 0.2589495 0.622236 0
vt 0.3211806 0.7724748 0
vt 0.2149457 0.6662399 0
vt 0.3651844 0.7284708 0
vt 0.8317365 0.1556722 0
vt 0.4368129 0.001953125 0
vt 0.9980469 0.2552918 0
vt 0.4700029 0.08326173 0
vt 0.3651844 0.8821899 0
vt 0.2149457 0.819959 0
vt 0.3651844 0.8199589 0
vt 0.2149457 0.8821899 0
vt 0.3211805 0.775955 0
vt 0.2589496 0.9261938 0
vt 0.3924394 0.8479546 0
vt 0.3211806 0.9261938 0
vt 0.3924394 0.412338 0
vt 0.9420392 0.04595702 0
vt 0.7918004 0.108188 0
vt 0.8980353 0.001953125 0
vt 0.8358044 0.1521919 0
vt 0.6007289 0.412338 0
vt 0.9420392 0.108188 0
vt 0.7918004 0.04595708 0
vt 0.8980353 0.1521919 0
vt 0.8358043 0.001953125 0
vt 0.7379214 0.1984725 0
vt 0.5876826 0.1362415 0
vt 0.7379214 0.1362416 0
vt 0.5876826 0.1984725 0
vt 0.6939174 0.2424764 0
vt 0.6316865 0.09223763 0
vt 0.6316865 0.2424764 0
vt 0.6939175 0.09223763 0
vt 0.9202177 0.95784 0
vt 0.3429977 0.2034318 0
vt 0.1927589 0.141201 0
vt 0.3429977 0.1412009 0
vt 0.1927589 0.2034319 0
vt 0.2989938 0.097197 0
vt 0.2367629 0.2474358 0
vt 0.7119282 0.7089163 0
vt 0.7119282 0.95784 0
vt 0.2989938 0.2474358 0
#end 174 textures vertices 

#begin 44 normals 
vn 0.3827 0 -0.9239
vn 0.9239 0 -0.3827
vn 0.9239 0 0.3827
vn 0.3827 0 0.9239
vn -0.3827 0 0.9239
vn -0.9239 0 0.3827
vn 0 1 -0
vn -0.9239 0 -0.3827
vn -0.3827 0 -0.9239
vn 0 -1 0
vn 0.3827 0 -0.9239
vn 0.9239 0 -0.3827
vn 0.9239 0 0.3827
vn 0.3827 0 0.9239
vn -0.3827 0 0.9239
vn -0.9239 0 0.3827
vn 0 1 0
vn -0.9239 0 -0.3827
vn -0.3827 0 -0.9239
vn 0 -1 -0
vn 0.3827 0 -0.9239
vn 0.9239 0 -0.3827
vn 0.9239 0 0.3827
vn 0.3827 0 0.9239
vn -0.3827 0 0.9239
vn -0.9239 0 0.3827
vn 0 1 -0
vn -0.9239 0 -0.3827
vn -0.3827 0 -0.9239
vn 0 -1 0
vn 0 -1 0
vn 0 1 0
vn 0.5 0 0.866
vn -0.46 0 0.8879
vn 0.4549 0 -0.8905
vn 1 0 0
vn 0.4905 0 0.8715
vn -0.5 0 0.866
vn -0.9995 0 0.0327
vn -0.5 0 -0.866
vn 0.9994 0 -0.0355
vn -1 0 0
vn -0.4958 0 -0.8684
vn 0.5 0 -0.866
#end 44 normals 

#begin 54 faces
usemtl None
g Cylinder
s off
f 1/1/1 2/2/1 4/4/1 3/3/1 
f 3/3/2 4/4/2 6/6/2 5/5/2 
f 5/5/3 6/6/3 8/8/3 7/7/3 
f 7/165/4 8/173/4 10/10/4 9/9/4 
f 9/9/5 10/10/5 12/12/5 11/11/5 
f 11/11/6 12/12/6 14/14/6 13/13/6 
f 4/169/7 2/167/7 16/16/7 14/170/7 12/168/7 10/166/7 8/174/7 6/171/7 
f 13/13/8 14/14/8 16/172/8 15/15/8 
f 15/15/9 16/172/9 2/2/9 1/1/9 
f 1/160/10 3/158/10 5/162/10 7/164/10 9/159/10 11/157/10 13/161/10 15/163/10 
usemtl None
g Cylinder:001
s off
f 17/17/11 18/18/11 20/20/11 19/19/11 
f 19/19/12 20/20/12 22/22/12 21/21/12 
f 21/21/13 22/22/13 24/24/13 23/23/13 
f 23/23/14 24/24/14 26/26/14 25/25/14 
f 25/25/15 26/26/15 28/28/15 27/27/15 
f 27/27/16 28/28/16 30/147/16 29/152/16 
f 20/142/17 18/140/17 32/32/17 30/143/17 28/141/17 26/139/17 24/146/17 22/144/17 
f 29/29/18 30/30/18 32/145/18 31/31/18 
f 31/31/19 32/145/19 18/18/19 17/17/19 
f 17/151/20 19/149/20 21/154/20 23/156/20 25/150/20 27/148/20 29/153/20 31/155/20 
usemtl None
g Cylinder:002
s off
f 33/33/21 34/34/21 36/36/21 35/128/21 
f 35/35/22 36/120/22 38/38/22 37/37/22 
f 37/37/23 38/38/23 40/40/23 39/39/23 
f 39/39/24 40/40/24 42/42/24 41/41/24 
f 41/41/25 42/42/25 44/44/25 43/43/25 
f 43/43/26 44/44/26 46/46/26 45/45/26 
f 36/121/27 34/118/27 48/48/27 46/122/27 44/119/27 42/117/27 40/125/27 38/123/27 
f 45/45/28 46/46/28 48/124/28 47/47/28 
f 47/47/29 48/124/29 34/34/29 33/33/29 
f 33/130/30 35/127/30 37/133/30 39/131/30 41/129/30 43/126/30 45/134/30 47/132/30 
usemtl None
g Cylinder:003
s off
f 49/49/31 59/59/31 71/71/31 61/61/31 
f 52/52/32 54/54/32 66/66/32 63/63/32 
f 54/54/32 56/56/32 68/68/32 66/66/32 
f 50/50/32 52/52/32 63/63/32 64/64/32 
f 59/88/33 49/113/33 50/80/33 60/115/33 
f 56/56/32 58/58/32 70/70/32 68/68/32 
f 53/53/31 51/51/31 62/62/31 65/65/31 
f 49/86/34 51/109/34 52/82/34 50/114/34 
f 61/103/35 64/73/35 63/105/35 62/94/35 
f 62/106/36 63/75/36 66/107/36 65/95/36 
f 65/108/37 66/76/37 68/97/37 67/67/37 
f 67/98/38 68/77/38 70/99/38 69/69/38 
f 69/100/39 70/78/39 72/101/39 71/91/39 
f 71/102/40 72/72/40 64/104/40 61/93/40 
f 59/59/31 57/57/31 69/92/31 71/71/31 
f 57/57/31 55/55/31 67/96/31 69/92/31 
f 60/83/32 50/50/32 64/64/32 72/74/32 
f 51/51/31 49/49/31 61/61/31 62/62/31 
f 55/55/31 53/53/31 65/65/31 67/96/31 
f 58/58/32 60/83/32 72/74/32 70/70/32 
f 57/85/41 59/116/41 60/60/41 58/137/41 
f 51/87/42 53/111/42 54/84/42 52/110/42 
f 53/90/43 55/135/43 56/79/43 54/112/43 
f 55/89/44 57/138/44 58/81/44 56/136/44 
#end 54 faces

#begin properties
#ZOMPROPERTIES_02 table {Mesh table {IslandsUVW table {0 table {TopoStable table {Selected bool false Visible bool false } } 1 table {TopoStable table {Selected bool false Visible bool false } } 2 table {TopoStable table {Selected bool false Visible bool false } } 3 table {TopoStable table {Selected bool false Visible bool false } } 4 table {TopoStable table {Selected bool false Visible bool false } } 5 table {TopoStable table {Selected bool false Visible bool false } } 6 table {TopoStable table {Selected bool false Visible bool false } } 7 table {TopoStable table {Selected bool false Visible bool false } } 8 table {TopoStable table {Selected bool false Visible bool false } } 9 table {TopoStable table {Selected bool false Visible bool false } } 10 table {TopoStable table {Selected bool false Visible bool false } } 11 table {TopoStable table {Selected bool false Visible bool false } } 12 table {TopoStable table {Selected bool false Visible bool false } } 13 table {TopoStable table {Selected bool false Visible bool false } } 14 table {TopoStable table {Selected bool false Visible bool false } } 15 table {TopoStable table {Selected bool false Visible bool false } } 16 table {TopoStable table {Selected bool false Visible bool false } } 17 table {TopoStable table {Selected bool false Visible bool false } } 18 table {TopoStable table {Selected bool false Visible bool false } } 19 table {TopoStable table {Selected bool false Visible bool false } } 20 table {TopoStable table {Selected bool false Visible bool false } } 21 table {TopoStable table {Selected bool false Visible bool false } } 22 table {TopoStable table {Selected bool false Visible bool false } } } SymPlane table {Point vector3d 0 0 0 Normal vector3d 1 0 0 Threshold double 0.01 Enabled bool false EdgeID int -1 SymEdgeID int -1 UPos double 0.5 LocalMode bool false } RootGroup CSubMeshGroup {Children table {Tile_0_0 CSubMeshGroup {Children table {} IslandIDs ints { 5 8 0 1 2 3 4 6 7 9 10 11 12 13 14 15 16 17 18 19 20 21 22 } BBoxUV box3d 0 0 0 0 0 0 BBox3D box3d 0 0 0 0 0 0 AreaUV double 0 Area3D double 0 IsRoot bool false TopoStable table {Selected bool false Box box3d 0 1 0 1 0 1 U int 0 V int 0 NU int 0 NV int 0 Tiling vector3d 1 1 1 TileRatioMode string "1:1" } IsTile bool true } } IslandIDs ints { } BBoxUV box3d 0 0 0 0 0 0 BBox3D box3d 0 0 0 0 0 0 AreaUV double 0 Area3D double 0 IsRoot bool true TopoStable table {Selected bool false Box box3d 0 1 0 1 0 1 U int 0 V int 0 NU int 1 NV int 1 Tiling vector3d 1 1 1 TileRatioMode string "1:1" Pack table {Rotate table {Mode int 2 Min double 0 Max double 180 Step double 0 } SpacingSize double 0.00390625 MarginSize double 0.001953125 Resolution int 200 Scaling table {Mode int 0 } LayoutScalingMode int 2 MaxMutations int 1 } } IsTile bool false } Maps table {Density table {PrimType string "Polygon" Size int 1 DefaultValue double 1 ScaleType string "Log" MinValue double 0.1 MaxValue double 4 Data doubles { r 54 1 } } Pin table {PrimType string "Vertex" Size int 1 DefaultValue double 0 ScaleType string "Normalized" MinValue double 0 MaxValue double 1 Data doubles { r 174 0 } } Protect table {PrimType string "Vertex" Size int 1 DefaultValue double 0 ScaleType string "Normalized" MinValue double -1 MaxValue double 1 Data doubles { r 174 0 } } } } }
#end properties

#begin 0 fatal error vertex (that RizomUV cannot handle)
#end 0 fatal error vertex (that RizomUV cannot handle)

#begin 0 error vertex
#end 0 error vertex
