#File written by LIBRIZOMUV. Compilation :Oct 10 2018,19:05:57
mtllib container:mtl
#begin vertices
v 0 -1 -1
v 0 1 -1
v 0.707107 -1 -0.707107
v 0.707107 1 -0.707107
v 1 -1 0
v 1 1 0
v 0.707107 -1 0.707107
v 0.707107 1 0.707107
v -0 -1 1
v -0 1 1
v -0.707107 -1 0.707107
v -0.707107 1 0.707107
v -1 -1 -0
v -1 1 -0
v -0.707107 -1 -0.707107
v -0.707107 1 -0.707107
v 0 -2 -1
v 0.707107 -2 -0.707107
v 0.707107 2 -0.707107
v 0 2 -1
v 1 -2 0
v 1 2 0
v 0.707107 -2 0.707107
v 0.707107 2 0.707107
v -0 -2 1
v -0 2 1
v -0.707107 -2 0.707107
v -0.707107 2 0.707107
v -1 -2 -0
v -1 2 -0
v -0.707107 -2 -0.707107
v -0.707107 2 -0.707107
v 0 -1 -1.218961
v 0.861936 -1 -0.861936
v 0.861936 1 -0.861936
v 0 1 -1.218961
v 1.218961 -1 0
v 1.218961 1 0
v 0.861936 -1 0.861936
v 0.861936 1 0.861936
v -0 -1 1.218961
v -0 1 1.218961
v -0.861936 -1 0.861936
v -0.861936 1 0.861936
v -1.218961 -1 -0
v -1.218961 1 -0
v -0.861936 -1 -0.861936
v -0.861936 1 -0.861936
v 0 -2 -1.218961
v 0.861936 -2 -0.861936
v 0.861936 2 -0.861936
v 0 2 -1.218961
v 1.218961 -2 0
v 1.218961 2 0
v 0.861936 -2 0.861936
v 0.861936 2 0.861936
v -0 -2 1.218961
v -0 2 1.218961
v -0.861936 -2 0.861936
v -0.861936 2 0.861936
v -1.218961 -2 -0
v -1.218961 2 -0
v -0.861936 -2 -0.861936
v -0.861936 2 -0.861936
#end vertices

#begin 114 textures vertices 
vt 0.3047402 0.25 -0.25
vt 0.3047402 0.75 -0.25
vt 0.481517 0.25 -0.1767768
vt 0.481517 0.75 -0.1767768
vt 0.5547403 0.25 0
vt 0.5547403 0.75 0
vt 0.481517 0.25 0.1767768
vt 0.481517 0.75 0.1767768
vt 0.3047402 0.25 0.25
vt 0.3047402 0.75 0.25
vt 0.1279635 0.25 0.1767768
vt 0.1279635 0.75 0.1767768
vt 0.05474025 0.25 0
vt 0.05474025 0.75 0
vt 0.1279635 0.25 -0.1767768
vt 0.1279635 0.75 -0.1767768
vt 0.3047402 0 -0.25
vt 0.481517 0 -0.1767768
vt 0.481517 1 -0.1767768
vt 0.3047402 1 -0.25
vt 0.5547403 0 0
vt 0.5547403 1 0
vt 0.481517 0 0.1767768
vt 0.481517 1 0.1767768
vt 0.3047402 0 0.25
vt 0.3047402 1 0.25
vt 0.1279635 0 0.1767768
vt 0.1279635 1 0.1767768
vt 0.05474025 0 0
vt 0.05474025 1 0
vt 0.1279635 0 -0.1767768
vt 0.1279635 1 -0.1767768
vt 0.3047402 0.25 -0.3047402
vt 0.5202243 0.25 -0.215484
vt 0.5202243 0.75 -0.215484
vt 0.3047402 0.75 -0.3047402
vt 0.6094805 0.25 0
vt 0.6094805 0.75 0
vt 0.5202243 0.25 0.215484
vt 0.5202243 0.75 0.215484
vt 0.3047402 0.25 0.3047402
vt 0.3047402 0.75 0.3047402
vt 0.08925625 0.25 0.215484
vt 0.08925625 0.75 0.215484
vt 0 0.25 0
vt 0 0.75 0
vt 0.08925625 0.25 -0.215484
vt 0.08925625 0.75 -0.215484
vt 0.3047402 0 -0.3047402
vt 0.5202243 0 -0.215484
vt 0.5202243 1 -0.215484
vt 0.3047402 1 -0.3047402
vt 0.6094805 0 0
vt 0.6094805 1 0
vt 0.5202243 0 0.215484
vt 0.5202243 1 0.215484
vt 0.3047402 0 0.3047402
vt 0.3047402 1 0.3047402
vt 0.08925625 0 0.215484
vt 0.08925625 1 0.215484
vt 0 0 -0
vt 0 1 0
vt 0.08925625 0 -0.215484
vt 0.08925625 1 -0.215484
vt 0.6094805 0.75 0
vt 0 0.75 0
vt 0.5202243 0.75 0.215484
vt 0.08925625 0.75 -0.215484
vt 0.3047402 0.75 0.3047402
vt 0.3047402 0.75 -0.3047402
vt 0.08925625 0.75 0.215484
vt 0.5202243 0.75 -0.215484
vt 0.3047402 0.75 0.25
vt 0.3047402 0.75 -0.25
vt 0.1279635 0.75 0.1767768
vt 0.481517 0.75 -0.1767768
vt 0.05474025 0.75 0
vt 0.5547403 0.75 0
vt 0.1279635 0.75 -0.1767768
vt 0.481517 0.75 0.1767768
vt 0.08925625 1 -0.215484
vt 0.5202243 1 0.215484
vt 0 1 0
vt 0.6094805 1 0
vt 0.3047402 1 0.3047402
vt 0.3047402 1 -0.3047402
vt 0.08925625 1 0.215484
vt 0.5202243 1 -0.215484
vt 0.5202243 0 0.215484
vt 0.08925625 0 -0.215484
vt 0.08925625 0 -0.215484
vt 0.3047402 0 0.3047402
vt 0.3047402 0 -0.3047402
vt 0.08925625 0 0.215484
vt 0.6094805 0 0
vt 0 0 -0
vt 0.5202243 0 -0.215484
vt 0.5202243 0.25 0.215484
vt 0.08925625 0.25 -0.215484
vt 0.08925625 0.25 -0.215484
vt 0.3047402 0.25 0.3047402
vt 0.3047402 0.25 -0.3047402
vt 0.5202243 0.25 -0.215484
vt 0 0.25 0
vt 0.6094805 0.25 0
vt 0.08925625 0.25 0.215484
vt 0.1279635 0.25 0.1767768
vt 0.481517 0.25 -0.1767768
vt 0.3047402 0.25 0.25
vt 0.3047402 0.25 -0.25
vt 0.05474025 0.25 0
vt 0.5547403 0.25 0
vt 0.1279635 0.25 -0.1767768
vt 0.481517 0.25 0.1767768
#end 114 textures vertices 

#begin 10 normals 
vn 0.3827 0 -0.9239
vn 0.9239 0 -0.3827
vn 0.9239 0 0.3827
vn 0.3827 0 0.9239
vn -0.3827 0 0.9239
vn -0.9239 0 0.3827
vn 0 -1 0
vn -0.9239 0 -0.3827
vn -0.3827 0 -0.9239
vn 0 1 0
#end 10 normals 

#begin 58 faces
o Cylinder
usemtl None
s off
f 1/1/1 2/2/1 4/4/1 3/3/1 
f 3/3/2 4/4/2 6/6/2 5/5/2 
f 5/5/3 6/6/3 8/8/3 7/7/3 
f 7/7/4 8/8/4 10/10/4 9/9/4 
f 9/9/5 10/10/5 12/12/5 11/11/5 
f 11/11/6 12/12/6 14/14/6 13/13/6 
f 29/29/7 27/27/7 59/59/7 61/61/7 
f 13/13/8 14/14/8 16/16/8 15/15/8 
f 15/15/9 16/16/9 2/2/9 1/1/9 
f 5/112/10 7/114/10 39/98/10 37/37/10 
f 19/19/10 20/20/10 32/32/10 30/30/10 28/28/10 26/26/10 24/24/10 22/22/10 
f 17/17/7 18/18/7 21/21/7 23/23/7 25/25/7 27/27/7 29/29/7 31/31/7 
f 16/79/7 14/77/7 46/46/7 48/48/7 
f 26/26/10 28/28/10 60/60/10 58/58/10 
f 13/111/10 15/113/10 47/99/10 45/45/10 
f 27/27/7 25/25/7 57/57/7 59/59/7 
f 6/78/7 4/76/7 35/35/7 38/38/7 
f 24/24/10 26/26/10 58/58/10 56/56/10 
f 3/108/10 5/112/10 37/37/10 34/34/10 
f 14/77/7 12/75/7 44/44/7 46/46/7 
f 25/25/7 23/23/7 55/55/7 57/57/7 
f 11/107/10 13/111/10 45/45/10 43/43/10 
f 22/22/10 24/24/10 56/56/10 54/54/10 
f 23/23/7 21/21/7 53/53/7 55/55/7 
f 4/76/7 2/74/7 36/36/7 35/35/7 
f 12/75/7 10/73/7 42/42/7 44/44/7 
f 37/105/3 39/39/3 55/89/3 53/95/3 
f 44/71/5 42/69/5 58/85/5 60/87/5 
f 47/100/9 33/33/9 49/49/9 63/63/9 
f 33/33/1 34/103/1 50/50/1 49/49/1 
f 40/40/3 38/65/3 54/84/3 56/82/3 
f 36/70/9 48/68/9 64/64/9 52/86/9 
f 35/72/1 36/70/1 52/86/1 51/51/1 
f 43/106/6 45/104/6 61/96/6 59/94/6 
f 46/66/6 44/71/6 60/87/6 62/62/6 
f 39/39/4 41/101/4 57/92/4 55/89/4 
f 42/69/4 40/40/4 56/82/4 58/85/4 
f 34/103/2 37/105/2 53/95/2 50/50/2 
f 45/104/8 47/47/8 63/91/8 61/96/8 
f 38/65/2 35/72/2 51/51/2 54/84/2 
f 48/68/8 46/66/8 62/62/8 64/64/8 
f 41/101/5 43/106/5 59/94/5 57/92/5 
f 8/80/7 6/78/7 38/38/7 40/67/7 
f 28/28/10 30/30/10 62/83/10 60/60/10 
f 15/113/10 1/110/10 33/102/10 47/99/10 
f 31/31/7 29/29/7 61/61/7 63/90/7 
f 2/74/7 16/79/7 48/48/7 36/36/7 
f 7/114/10 9/109/10 41/41/10 39/98/10 
f 30/30/10 32/32/10 64/81/10 62/83/10 
f 18/18/7 17/17/7 49/93/7 50/97/7 
f 10/73/7 8/80/7 40/67/7 42/42/7 
f 17/17/7 31/31/7 63/90/7 49/93/7 
f 20/20/10 19/19/10 51/88/10 52/52/10 
f 32/32/10 20/20/10 52/52/10 64/81/10 
f 21/21/7 18/18/7 50/97/7 53/53/7 
f 9/109/10 11/107/10 43/43/10 41/41/10 
f 1/110/10 3/108/10 34/34/10 33/102/10 
f 19/19/10 22/22/10 54/54/10 51/88/10 
#end 58 faces

#begin properties
#ZOMPROPERTIES_02 table {Mesh table {IslandsUVW table {0 table {TopoStable table {Selected bool false Visible bool false } } 1 table {TopoStable table {Selected bool false Visible bool false } } 2 table {TopoStable table {Selected bool false Visible bool false } } 3 table {TopoStable table {Selected bool false Visible bool false } } 4 table {TopoStable table {Selected bool false Visible bool false } } 5 table {TopoStable table {Selected bool false Visible bool false } } 6 table {TopoStable table {Selected bool false Visible bool false } } } SymPlane table {Point vector3d 0 0 0 Normal vector3d 1 0 0 Threshold double 0.01 Enabled bool false EdgeID int -1 SymEdgeID int -1 UPos double 0.5 LocalMode bool false } RootGroup CSubMeshGroup {Children table {Tile_0_0 CSubMeshGroup {Children table {} IslandIDs ints { } BBoxUV box3d 0 0 0 0 0 0 BBox3D box3d 0 0 0 0 0 0 AreaUV double 0 Area3D double 0 IsRoot bool false TopoStable table {Selected bool false Box box3d 0 1 0 1 0 1 U int 0 V int 0 NU int 0 NV int 0 Tiling vector3d 1 1 1 TileRatioMode string "1:1" } IsTile bool true } } IslandIDs ints { 0 1 2 3 4 5 6 } BBoxUV box3d 0 0 0 0 0 0 BBox3D box3d 0 0 0 0 0 0 AreaUV double 0 Area3D double 0 IsRoot bool true TopoStable table {Selected bool false Box box3d 0 1 0 1 0 1 U int 0 V int 0 NU int 1 NV int 1 Tiling vector3d 1 1 1 TileRatioMode string "1:1" Pack table {Rotate table {Mode int 2 Min double 0 Max double 180 Step double 0 } SpacingSize double 0.00390625 MarginSize double 0.001953125 Resolution int 200 Scaling table {Mode int 0 } LayoutScalingMode int 2 MaxMutations int 1 } } IsTile bool false } Maps table {Density table {PrimType string "Polygon" Size int 1 DefaultValue double 1 ScaleType string "Log" MinValue double 0.1 MaxValue double 4 Data doubles { r 58 1 } } Pin table {PrimType string "Vertex" Size int 1 DefaultValue double 0 ScaleType string "Normalized" MinValue double 0 MaxValue double 1 Data doubles { r 114 0 } } Protect table {PrimType string "Vertex" Size int 1 DefaultValue double 0 ScaleType string "Normalized" MinValue double -1 MaxValue double 1 Data doubles { r 114 0 } } } } }
#end properties

#begin 0 fatal error vertex (that RizomUV cannot handle)
#end 0 fatal error vertex (that RizomUV cannot handle)

#begin 0 error vertex
#end 0 error vertex
